<mxfile host="app.diagrams.net" modified="2021-10-29T09:37:52.880Z" agent="5.0 (Windows NT 10.0; Win64; x64) AppleWebKit/537.36 (KHTML, like Gecko) Chrome/94.0.4606.81 Safari/537.36" etag="7zt3bZpOHAfuGKcBGiL4" version="15.6.2" type="github">
  <diagram id="-9nI2UL2rXAvXKxgZ04W" name="Page-1">
    <mxGraphModel dx="1422" dy="762" grid="1" gridSize="10" guides="1" tooltips="1" connect="1" arrows="1" fold="1" page="1" pageScale="1" pageWidth="827" pageHeight="1169" math="0" shadow="0">
      <root>
        <mxCell id="0" />
        <mxCell id="1" parent="0" />
        <mxCell id="rn9OFKj_RKnq4pA1B-9g-3" style="edgeStyle=orthogonalEdgeStyle;rounded=0;orthogonalLoop=1;jettySize=auto;html=1;entryX=0;entryY=0.5;entryDx=0;entryDy=0;" edge="1" parent="1" source="rn9OFKj_RKnq4pA1B-9g-1" target="rn9OFKj_RKnq4pA1B-9g-4">
          <mxGeometry relative="1" as="geometry">
            <mxPoint x="200" y="150" as="targetPoint" />
          </mxGeometry>
        </mxCell>
        <mxCell id="rn9OFKj_RKnq4pA1B-9g-5" style="edgeStyle=orthogonalEdgeStyle;rounded=0;orthogonalLoop=1;jettySize=auto;html=1;entryX=0;entryY=0.5;entryDx=0;entryDy=0;" edge="1" parent="1" source="rn9OFKj_RKnq4pA1B-9g-1" target="rn9OFKj_RKnq4pA1B-9g-6">
          <mxGeometry relative="1" as="geometry">
            <mxPoint x="280" y="270" as="targetPoint" />
          </mxGeometry>
        </mxCell>
        <object label="Actor" id="rn9OFKj_RKnq4pA1B-9g-1">
          <mxCell style="shape=umlActor;verticalLabelPosition=bottom;verticalAlign=top;html=1;" vertex="1" parent="1">
            <mxGeometry x="10" y="240" width="30" height="60" as="geometry" />
          </mxCell>
        </object>
        <mxCell id="rn9OFKj_RKnq4pA1B-9g-4" value="进入首页" style="ellipse;whiteSpace=wrap;html=1;" vertex="1" parent="1">
          <mxGeometry x="290" y="130" width="140" height="70" as="geometry" />
        </mxCell>
        <mxCell id="rn9OFKj_RKnq4pA1B-9g-6" value="单次下单" style="ellipse;whiteSpace=wrap;html=1;" vertex="1" parent="1">
          <mxGeometry x="290" y="235" width="140" height="70" as="geometry" />
        </mxCell>
        <mxCell id="rn9OFKj_RKnq4pA1B-9g-8" style="edgeStyle=orthogonalEdgeStyle;rounded=0;orthogonalLoop=1;jettySize=auto;html=1;entryX=0;entryY=0.5;entryDx=0;entryDy=0;" edge="1" parent="1" source="rn9OFKj_RKnq4pA1B-9g-7" target="rn9OFKj_RKnq4pA1B-9g-9">
          <mxGeometry relative="1" as="geometry">
            <mxPoint x="120" y="780" as="targetPoint" />
          </mxGeometry>
        </mxCell>
        <mxCell id="rn9OFKj_RKnq4pA1B-9g-7" value="Actor" style="shape=umlActor;verticalLabelPosition=bottom;verticalAlign=top;html=1;" vertex="1" parent="1">
          <mxGeometry x="30" y="750" width="30" height="60" as="geometry" />
        </mxCell>
        <mxCell id="rn9OFKj_RKnq4pA1B-9g-15" style="edgeStyle=orthogonalEdgeStyle;rounded=0;orthogonalLoop=1;jettySize=auto;html=1;entryX=0;entryY=0.5;entryDx=0;entryDy=0;" edge="1" parent="1" source="rn9OFKj_RKnq4pA1B-9g-9" target="rn9OFKj_RKnq4pA1B-9g-14">
          <mxGeometry relative="1" as="geometry" />
        </mxCell>
        <mxCell id="rn9OFKj_RKnq4pA1B-9g-16" style="edgeStyle=orthogonalEdgeStyle;rounded=0;orthogonalLoop=1;jettySize=auto;html=1;entryX=0;entryY=0.5;entryDx=0;entryDy=0;" edge="1" parent="1" source="rn9OFKj_RKnq4pA1B-9g-9" target="rn9OFKj_RKnq4pA1B-9g-17">
          <mxGeometry relative="1" as="geometry">
            <mxPoint x="310" y="880" as="targetPoint" />
          </mxGeometry>
        </mxCell>
        <mxCell id="rn9OFKj_RKnq4pA1B-9g-20" style="edgeStyle=orthogonalEdgeStyle;rounded=0;orthogonalLoop=1;jettySize=auto;html=1;entryX=0;entryY=0.5;entryDx=0;entryDy=0;" edge="1" parent="1" source="rn9OFKj_RKnq4pA1B-9g-9" target="rn9OFKj_RKnq4pA1B-9g-19">
          <mxGeometry relative="1" as="geometry" />
        </mxCell>
        <mxCell id="rn9OFKj_RKnq4pA1B-9g-9" value="前台子系统&lt;br&gt;主页" style="ellipse;whiteSpace=wrap;html=1;" vertex="1" parent="1">
          <mxGeometry x="160" y="750" width="120" height="60" as="geometry" />
        </mxCell>
        <mxCell id="rn9OFKj_RKnq4pA1B-9g-14" value="1&amp;nbsp;登录" style="whiteSpace=wrap;html=1;" vertex="1" parent="1">
          <mxGeometry x="330" y="650" width="120" height="50" as="geometry" />
        </mxCell>
        <mxCell id="rn9OFKj_RKnq4pA1B-9g-17" value="2&amp;nbsp;各个页签" style="whiteSpace=wrap;html=1;" vertex="1" parent="1">
          <mxGeometry x="330" y="780" width="130" height="60" as="geometry" />
        </mxCell>
        <mxCell id="rn9OFKj_RKnq4pA1B-9g-18" value="如果已经有登录后的cookie了则直接进入登录状态" style="text;html=1;align=center;verticalAlign=middle;resizable=0;points=[];autosize=1;strokeColor=none;fillColor=none;" vertex="1" parent="1">
          <mxGeometry x="450" y="660" width="280" height="20" as="geometry" />
        </mxCell>
        <mxCell id="rn9OFKj_RKnq4pA1B-9g-19" value="0&amp;nbsp;注册" style="whiteSpace=wrap;html=1;" vertex="1" parent="1">
          <mxGeometry x="330" y="570" width="120" height="60" as="geometry" />
        </mxCell>
        <mxCell id="rn9OFKj_RKnq4pA1B-9g-21" value="现场：记录一下细节，是否需要记录后立马入库？仓库负责人在入库后将入库相关记录再次更新。&lt;br&gt;&lt;br&gt;网上：也是先定好各种记录细节，但是不涉及到入库事项。等到货物进入仓库后才更新入库相关信息。&lt;br&gt;&lt;br&gt;分销商等下线一次批量入库：如果自有系统的话，需要一个数据导出接口，如果使用我们的记录系统就不需要额外操作。" style="whiteSpace=wrap;html=1;" vertex="1" parent="1">
          <mxGeometry x="20" y="870" width="120" height="340" as="geometry" />
        </mxCell>
      </root>
    </mxGraphModel>
  </diagram>
</mxfile>
